<?xml version="1.0" encoding="UTF-8"?>
<svg id="Layer_2" data-name="Layer 2" xmlns="http://www.w3.org/2000/svg" viewBox="0 0 477.1 324">
  <defs>
    <style>
      .cls-1 {
        fill: #182c61;
      }

      .cls-2 {
        fill: #f94f1b;
      }
    </style>
  </defs>
  <g id="Layer_1-2" data-name="Layer 1">
    <g>
      <path class="cls-1" d="m85.25,0H0v38c0,8.56,3.47,16.31,9.08,21.92,5.61,5.61,13.36,11.08,21.92,11.08v7h-13.94c-2.92,0-5.66.73-8.06,2.02C3.94,82.74.4,87.94.03,94h-.03v61h41.5v-40.5h43.75c15.81,0,30.12-6.41,40.48-16.77,10.36-10.36,16.77-24.67,16.77-40.48C142.5,25.63,116.87,0,85.25,0Zm11.34,73.53c-2.89,2.91-7.64,3.97-15.09,3.97h-40v-38h40c14.9,0,19,4.25,19,19,0,7.38-1.02,12.12-3.91,15.03Z"/>
      <path class="cls-2" d="m41.5,169v43.19c-11.46,0-21.49-3.18-29-10.69S.29,180.3.01,169h41.49Z"/>
      <path class="cls-1" d="m21.84,217.5h19.66v106.5H0v-88.5h.04c.5-8.11,2.46-14,7.46-16,2.94-1.17,10.43-2,14.34-2Z"/>
      <path class="cls-1" d="m211.5,169v155h-45.35l-63.47-90.47h-4.18v90.47h-41.5v-155h46.16c.2.28.34.5.34.5l63.32,94h3.18v-94.5h41.5Z"/>
      <path class="cls-1" d="m311.86,169h-83.86v80.04c1.14,6.34,4.21,12.01,8.58,16.38,5.61,5.61,13.36,11.08,21.92,11.08v7h-13.94c-2.92,0-5.66.73-8.06,2.02-4.19,2.25-7.34,6.21-8.5,10.94v27.54h83.86c41.77,0,75.64-33.87,75.64-75.64v-3.72c0-41.77-33.87-75.64-75.64-75.64Zm30.64,79.67c0,36.76-16.04,35.83-35.83,35.83h-37.17v-76h37.17c19.79,0,35.83-.93,35.83,35.83v4.34Z"/>
      <path class="cls-1" d="m.01,169h-.01v-.98c0,.32,0,.65.01.98Z"/>
      <path class="cls-1" d="m234,0c-49.88,0-85.58,31.59-85.58,77.5s35.7,77.5,85.58,77.5,85.58-31.59,85.58-77.5S283.88,0,234,0Zm0,116.91c-22.83,0-42.13-8.23-42.13-39.41s19.3-39.41,42.13-39.41,42.13,8.23,42.13,39.41-19.3,39.41-42.13,39.41Z"/>
      <path class="cls-1" d="m405.5,156c-83,0-75-56.18-75-56.18h42v10.03c0,2.3,2.31,4.06,4.81,5.28,2.99,1.46,6.29,2.16,9.61,2.21,9.27.13,34.46.43,38.31-.05.11,0,.22-.03.32-.04,5.24-.74,9.17-5.43,8.69-10.7-.26-2.79-1.68-5.51-5.74-6.73-10-3.01-46-6.02-46-6.02-59-2.01-55-45.14-55-45.14,0,0-4-48.66,74.93-48.66s70.97,55.68,70.97,55.68h-41.9v-6.54c0-1.47-.32-2.94-1.07-4.19-3.86-6.42-14.9-6.74-14.9-6.74h-32.37c-2.49,0-4.98.4-7.3,1.3-3.04,1.18-6.36,3.34-6.36,7.14,0,3.23,1.9,5.4,3.96,6.8,2.09,1.42,4.57,2.12,7.09,2.21,4.2.15,16.32,1.23,48.95,7.04,45,8.03,47,36.12,47,36.12,0,0,12,57.18-71,57.18Z"/>
    </g>
  </g>
</svg>